Coordinates
version=1
nRows=16
nColumns=36
inDegrees=yes

Units are S.I. units (second, meters, Newtons, ...)
If the header above contains a line with 'inDegrees', this indicates whether rotational values are in degrees (yes) or radians (no).

endheader
time	pelvis_tilt	pelvis_list	pelvis_rotation	pelvis_tx	pelvis_ty	pelvis_tz	hip_flexion_r	hip_adduction_r	hip_rotation_r	knee_angle_r	knee_angle_r_beta	ankle_angle_r	subtalar_angle_r	mtp_angle_r	hip_flexion_l	hip_adduction_l	hip_rotation_l	knee_angle_l	knee_angle_l_beta	ankle_angle_l	subtalar_angle_l	mtp_angle_l	lumbar_extension	lumbar_bending	lumbar_rotation	arm_flex_r	arm_add_r	arm_rot_r	elbow_flex_r	pro_sup_r	arm_flex_l	arm_add_l	arm_rot_l	elbow_flex_l	pro_sup_l
      1.20000000	      1.40710882	     -1.35790665	     14.16495324	      0.06757742	      1.21432895	      0.07357808	     -6.85657911	     -0.02986853	     -9.78579955	      4.40692230	      0.07691530	     19.48231047	      0.25380647	     -7.49999987	      0.98544178	      1.18797816	      5.78050441	     18.32988374	      0.31991682	     16.19223784	    -10.06812314	     -7.49999987	     -5.81651913	      0.90148078	     -0.02905687	     -4.35912353	     -3.62050873	     -5.01373988	     29.32505957	     88.62772367	      0.57295933	     -3.34153223	      8.04070908	     19.75839483	     81.69547347
      1.21666670	      1.08542250	     -1.53415578	     14.80298917	      0.06771565	      1.21004718	      0.07273345	     -6.36700443	      0.14258957	     -9.76800171	      5.12979892	      0.08953188	     19.80202767	     -0.66062156	     -7.49999987	      2.08376289	      1.25787009	      6.79196589	     20.28223455	      0.35399177	     16.89341796	    -11.14669620	     -7.49999987	     -5.54506693	      0.94105985	     -0.33257390	     -5.09309646	     -3.55810905	     -5.22672836	     29.35875530	     87.73028097	      0.33401949	     -3.42765172	      8.14910770	     19.44453513	     81.01009943
      1.23333330	      0.82343324	     -1.67873585	     14.99633282	      0.07432240	      1.21198750	      0.06926845	     -5.63751630	      0.16674618	     -9.28392507	      6.43963767	      0.11239288	     20.46675389	     -1.67847500	     -7.49999987	      3.18495978	      1.37559475	      7.51639919	     22.44881361	      0.39180571	     17.31227725	    -12.49993678	     -7.49999987	     -5.31633307	      0.95790943	     -0.21190241	     -5.90356706	     -3.57890562	     -5.54587383	     29.36664499	     88.16365357	     -0.33577241	     -3.35670141	      8.38816725	     18.93947176	     81.33847623
      1.25000000	      0.67629346	     -1.88070436	     15.00270356	      0.07461200	      1.20462136	      0.06889201	     -4.20239745	      0.19549040	     -8.42014805	      9.28470519	      0.16204868	     21.42789353	     -3.49866937	     -7.49999987	      4.60496203	      1.41863088	      8.01940977	     25.57486858	      0.44636566	     17.97506838	    -13.84955812	     -7.49999987	     -5.47895828	      1.12194994	     -0.18181923	     -6.45878167	     -3.63447221	     -5.78125727	     29.74664784	     87.54244048	     -0.95238699	     -3.23782524	      8.52460560	     18.73459547	     80.62306526
      1.26666670	      0.71549862	     -2.10562690	     15.10770442	      0.07406962	      1.19764333	      0.06856344	     -2.55842848	      0.29875319	     -7.60186340	     13.02681207	      0.22736076	     22.50673256	     -5.69346147	     -7.49999987	      6.38017485	      1.37203754	      8.25714220	     29.67238800	      0.51788087	     18.71348558	    -15.28497240	     -7.49999987	     -6.10123585	      1.40271039	     -0.02764366	     -6.77212513	     -3.84686860	     -5.82387744	     30.16379828	     87.07059698	     -1.38483164	     -3.25636800	      8.71694761	     19.00628439	     79.97459158
      1.28333330	      0.58611100	     -2.23414324	     15.09276808	      0.07457448	      1.19357194	      0.06787529	     -0.50186709	      0.16653914	     -6.76352031	     17.25884675	      0.30122370	     23.34463122	     -8.06223975	     -7.49999987	      8.15210707	      1.47297672	      8.33051793	     33.40308978	      0.58299390	     19.36725434	    -16.39866383	     -7.49999987	     -6.95898486	      1.48543020	      0.01557196	     -6.90240439	     -3.73516996	     -6.03727702	     30.99103898	     85.67035587	     -1.76198199	     -3.24263112	      8.73053577	     19.53088785	     78.71792698
      1.30000000	      0.65028860	     -2.31988918	     15.34619178	      0.08066385	      1.18404134	      0.06500845	      1.08237717	      0.05900682	     -6.32568967	     21.16022282	      0.36931556	     24.58400149	     -9.69490821	     -7.49999987	      9.69049107	      1.56381320	      8.26585738	     37.17860754	      0.64888911	     20.48309670	    -16.86972983	     -7.49999987	     -8.25883259	      1.49877449	      0.02979423	     -6.98729403	     -3.58763298	     -6.13137975	     32.26469129	     84.73599644	     -2.17672237	     -3.36938614	      8.75592540	     20.95141184	     78.04718444
      1.31666670	      0.18176125	     -2.54040758	     15.39922522	      0.08108392	      1.17942465	      0.06443502	      3.60903834	     -0.01681655	     -5.18971412	     25.56502443	      0.44619385	     25.12724237	    -12.67115014	     -7.49999987	     12.02434052	      1.70957560	      8.20548687	     41.08647785	      0.71709432	     20.87586326	    -18.11691192	     -7.49999987	     -8.66915016	      1.50294853	      0.78857884	     -7.28105711	     -2.93809295	     -9.39564960	     33.40965651	     92.96396183	     -1.96602859	     -3.24286962	      8.38474938	     20.35869019	     83.02041247
      1.33333330	      0.04908279	     -2.49979560	     15.45107885	      0.08106709	      1.17186259	      0.06495203	      6.24703021	     -0.20157747	     -4.11095776	     30.73241729	      0.53638187	     26.45351428	    -15.13045813	     -7.49999987	     14.12143918	      1.94734725	      7.91495135	     45.22882004	      0.78939183	     21.92355930	    -18.81284179	     -7.49999987	     -9.91144620	      1.22314186	      1.00425113	     -7.12258917	     -2.68478183	     -9.26684362	     34.71847365	     92.57800142	     -2.01512157	     -3.34043529	      8.40362005	     21.10832486	     82.88630993
      1.35000000	     -0.08552361	     -2.42274565	     15.53779277	      0.08067930	      1.15247650	      0.06587908	      9.30710590	     -0.36286885	     -3.21199291	     36.58591109	      0.63854461	     27.99686587	    -17.53615803	     -7.49999987	     16.77952470	      2.19326672	      7.55980811	     50.13725992	      0.87506026	     23.34283637	    -19.20432338	     -7.49999987	    -11.40311389	      0.90569934	      1.08725813	     -6.88855569	     -2.36714585	     -9.21823560	     36.59727600	     91.23012761	     -2.16161908	     -3.59600082	      8.36060435	     22.25968996	     82.02250964
      1.36666670	      0.47204650	     -2.29740038	     15.81582319	      0.08617010	      1.14055968	      0.06325104	     11.25502734	     -0.47604618	     -2.87563431	     41.91373298	      0.73153264	     29.65804929	    -19.08912742	     -7.49999987	     18.45688175	      2.39701138	      7.55564148	     54.39684175	      0.94940399	     24.69460481	    -19.35098004	     -7.49999987	    -13.78832066	      0.82576244	      1.13155518	     -6.01171950	     -2.21731926	     -9.21849222	     37.81429990	     90.29281718	     -2.03839955	     -3.71386104	      8.33915603	     23.22602355	     81.39313369
      1.38333330	     -0.75119418	     -2.30735163	     15.67321114	      0.08006265	      1.12887236	      0.06639041	     15.62854246	     -0.73756971	     -2.11994924	     47.70102935	      0.83254002	     31.75362659	    -20.85561396	     -7.49999987	     22.26156063	      2.75268636	      7.06193146	     58.59627018	      1.02269784	     26.64872863	    -18.75325704	     -7.49999987	    -14.12168045	      0.16459337	      1.36596904	     -5.38339478	     -1.89023877	     -8.80598221	     40.01369383	     88.14246276	     -1.88477520	     -3.95930454	      8.38388682	     23.44265057	     79.43357459
      1.40000000	     -1.03288113	     -2.31688975	     15.87005020	      0.08643180	      1.12241714	      0.06367483	     18.17982211	     -0.85796896	     -1.86139162	     52.29922992	      0.91279376	     33.70071462	    -21.68127024	     -7.49999987	     24.78504523	      2.86328264	      6.92620518	     62.41101152	      1.08927764	     27.75914071	    -18.16826451	     -7.49999987	    -15.72344986	     -0.13425677	      1.34201956	     -4.16993015	     -1.64022003	     -8.58340594	     41.59126957	     88.71945492	     -1.58295704	     -4.21293894	      8.55081121	     23.59213937	     79.89878928
      1.41666670	     -1.52045502	     -2.36927775	     16.06237831	      0.08661020	      1.11277813	      0.06356383	     20.78163955	     -0.91055089	     -1.54936792	     56.62875650	      0.98835825	     35.38493425	    -22.54314803	     -7.49999987	     26.96920983	      2.98628890	      6.94851597	     65.31603473	      1.13997986	     28.80235762	    -17.42109130	     -7.49999987	    -17.50100443	     -0.50851151	      1.30755646	     -2.91150101	     -1.40096661	     -8.38534233	     43.20223330	     89.16552859	     -1.00273715	     -4.48585847	      8.70962238	     23.85211550	     80.28475766
      1.43333330	     -1.40976434	     -2.54500444	     16.29046917	      0.08649448	      1.11250512	      0.06306591	     21.91068317	     -0.63326491	     -1.58028389	     59.43831029	      1.03739422	     36.39428537	    -23.36048436	     -7.49999987	     27.82131273	      2.83639058	      7.31711461	     67.24758565	      1.17369178	     28.84227877	    -17.35030464	     -7.49999987	    -19.81632961	     -0.55819573	      1.37357707	     -0.97987655	     -1.23731559	     -8.29112006	     43.81430089	     89.27731640	      0.11980535	     -4.53690894	      8.73679418	     23.84175131	     80.37981927
      1.45000000	     -1.91490869	     -2.55565882	     16.36149623	      0.10094586	      1.10244940	      0.05646490	     22.98686927	     -0.69035021	     -1.42417956	     61.75300426	      1.07779325	     37.53974102	    -23.72093215	     -7.49999987	     28.52550720	      2.79317464	      7.10934359	     68.93589336	      1.20315831	     29.45350273	    -16.46835452	     -7.49999987	    -21.27646952	     -0.80087581	      1.07015354	      0.08830496	     -1.09756433	     -8.26299021	     46.64473019	     95.15862433	      0.84091792	     -4.85931034	      8.80911214	     24.02628642	     85.60878761
